<mxfile host="Electron" agent="Mozilla/5.0 (Windows NT 10.0; Win64; x64) AppleWebKit/537.36 (KHTML, like Gecko) draw.io/24.7.17 Chrome/128.0.6613.36 Electron/32.0.1 Safari/537.36" version="24.7.17">
  <diagram name="Page-1" id="2c0d36ab-eaac-3732-788b-9136903baeff">
    <mxGraphModel dx="875" dy="1793.5" grid="1" gridSize="10" guides="1" tooltips="1" connect="1" arrows="1" fold="1" page="1" pageScale="1.5" pageWidth="1169" pageHeight="827" background="none" math="0" shadow="0">
      <root>
        <mxCell id="0" />
        <mxCell id="1" parent="0" />
        <mxCell id="xErckH01YXHk2ok-q27Q-126" value="&lt;b style=&quot;font-size: 16px;&quot;&gt;Dodanie &lt;br&gt;Instrukcji JMP&lt;/b&gt;" style="rounded=1;whiteSpace=wrap;html=1;fillColor=#dae8fc;strokeColor=#6c8ebf;" vertex="1" parent="1">
          <mxGeometry x="603" y="240" width="190" height="80" as="geometry" />
        </mxCell>
        <mxCell id="xErckH01YXHk2ok-q27Q-127" value="&lt;b style=&quot;font-size: 16px;&quot;&gt;Dodanie &lt;br&gt;Pamięci Danych&lt;br&gt;(Data Memory)&lt;/b&gt;" style="rounded=1;whiteSpace=wrap;html=1;fillColor=#ffe6cc;strokeColor=#d79b00;" vertex="1" parent="1">
          <mxGeometry x="1530" y="230" width="190" height="80" as="geometry" />
        </mxCell>
        <mxCell id="xErckH01YXHk2ok-q27Q-128" value="&lt;b style=&quot;font-size: 16px;&quot;&gt;Dodanie Danych Natychmiastowych&lt;br&gt;(ImdData)&lt;/b&gt;" style="rounded=1;whiteSpace=wrap;html=1;fillColor=#fff2cc;strokeColor=#d6b656;" vertex="1" parent="1">
          <mxGeometry x="945" y="240" width="190" height="80" as="geometry" />
        </mxCell>
        <mxCell id="xErckH01YXHk2ok-q27Q-130" value="" style="endArrow=classic;html=1;rounded=0;" edge="1" parent="1" source="xErckH01YXHk2ok-q27Q-208" target="xErckH01YXHk2ok-q27Q-128">
          <mxGeometry width="50" height="50" relative="1" as="geometry">
            <mxPoint x="1040" y="120" as="sourcePoint" />
            <mxPoint x="870" y="250" as="targetPoint" />
          </mxGeometry>
        </mxCell>
        <mxCell id="xErckH01YXHk2ok-q27Q-131" value="" style="endArrow=classic;html=1;rounded=0;" edge="1" parent="1" source="xErckH01YXHk2ok-q27Q-208" target="xErckH01YXHk2ok-q27Q-127">
          <mxGeometry width="50" height="50" relative="1" as="geometry">
            <mxPoint x="1200" y="117.5757575757575" as="sourcePoint" />
            <mxPoint x="1073" y="280" as="targetPoint" />
          </mxGeometry>
        </mxCell>
        <mxCell id="xErckH01YXHk2ok-q27Q-136" value="" style="endArrow=classic;html=1;rounded=0;" edge="1" parent="1" source="xErckH01YXHk2ok-q27Q-128" target="xErckH01YXHk2ok-q27Q-142">
          <mxGeometry width="50" height="50" relative="1" as="geometry">
            <mxPoint x="970" y="350" as="sourcePoint" />
            <mxPoint x="1114.1935483870968" y="380.0000000000002" as="targetPoint" />
          </mxGeometry>
        </mxCell>
        <mxCell id="xErckH01YXHk2ok-q27Q-137" value="" style="endArrow=classic;html=1;rounded=0;" edge="1" parent="1" source="xErckH01YXHk2ok-q27Q-127" target="xErckH01YXHk2ok-q27Q-142">
          <mxGeometry width="50" height="50" relative="1" as="geometry">
            <mxPoint x="1060" y="140" as="sourcePoint" />
            <mxPoint x="1204.6774193548385" y="380.0000000000002" as="targetPoint" />
          </mxGeometry>
        </mxCell>
        <mxCell id="xErckH01YXHk2ok-q27Q-142" value="&lt;span style=&quot;font-size: 16px; font-weight: 400;&quot;&gt;Zmiana szerokości&amp;nbsp;&lt;/span&gt;&lt;span style=&quot;font-size: 16px; font-weight: 400;&quot;&gt;PM-&amp;gt;ID&lt;/span&gt;" style="swimlane;whiteSpace=wrap;html=1;fillColor=#f5f5f5;strokeColor=#666666;fixDash=0;dropTarget=1;editable=1;movable=1;resizable=1;rotatable=1;deletable=1;locked=0;connectable=1;treeFolding=0;swimlaneLine=1;noLabel=0;perimeter=rectanglePerimeter;autosize=0;fixedWidth=0;fontColor=#333333;startSize=30;" vertex="1" parent="1">
          <mxGeometry x="1180" y="350" width="220" height="100" as="geometry">
            <mxRectangle x="430" y="-220" width="50" height="30" as="alternateBounds" />
          </mxGeometry>
        </mxCell>
        <mxCell id="xErckH01YXHk2ok-q27Q-145" value="&lt;span style=&quot;color: rgb(51, 51, 51);&quot;&gt;OPCODE: 4bit&lt;/span&gt;&lt;br style=&quot;color: rgb(51, 51, 51);&quot;&gt;&lt;span style=&quot;color: rgb(51, 51, 51);&quot;&gt;ARG: 2b -&amp;gt; 8b&lt;/span&gt;&lt;br style=&quot;color: rgb(51, 51, 51);&quot;&gt;&lt;span style=&quot;color: rgb(51, 51, 51);&quot;&gt;ImdData oraz adres wymagają co najmniej 8 bitów&lt;/span&gt;" style="rounded=0;whiteSpace=wrap;html=1;" vertex="1" parent="xErckH01YXHk2ok-q27Q-142">
          <mxGeometry y="30" width="220" height="70" as="geometry" />
        </mxCell>
        <mxCell id="xErckH01YXHk2ok-q27Q-147" value="&lt;span style=&quot;font-size: 16px; font-weight: normal;&quot;&gt;Dodanie wejść do PC&lt;/span&gt;" style="swimlane;whiteSpace=wrap;html=1;fillColor=#d5e8d4;strokeColor=#82b366;fixDash=0;dropTarget=1;editable=1;movable=1;resizable=1;rotatable=1;deletable=1;locked=0;connectable=1;treeFolding=0;swimlaneLine=1;noLabel=0;perimeter=rectanglePerimeter;autosize=0;fixedWidth=0;startSize=30;" vertex="1" parent="1">
          <mxGeometry x="353" y="670" width="220" height="100" as="geometry">
            <mxRectangle x="430" y="-220" width="50" height="30" as="alternateBounds" />
          </mxGeometry>
        </mxCell>
        <mxCell id="xErckH01YXHk2ok-q27Q-148" value="Dodanie Set (ustaw), InsAddr z ID do PC w celu zmiany wartości podczas wykonywania instrukcji JMP&amp;nbsp;" style="rounded=0;whiteSpace=wrap;html=1;" vertex="1" parent="xErckH01YXHk2ok-q27Q-147">
          <mxGeometry y="30" width="220" height="70" as="geometry" />
        </mxCell>
        <mxCell id="xErckH01YXHk2ok-q27Q-149" value="&lt;span style=&quot;font-size: 16px;&quot;&gt;Dodanie nowego mnemonica&lt;/span&gt;" style="rounded=0;whiteSpace=wrap;html=1;fillColor=#dae8fc;strokeColor=#6c8ebf;" vertex="1" parent="1">
          <mxGeometry x="863" y="670" width="135" height="100" as="geometry" />
        </mxCell>
        <mxCell id="xErckH01YXHk2ok-q27Q-151" value="" style="endArrow=classic;html=1;rounded=0;" edge="1" parent="1" source="xErckH01YXHk2ok-q27Q-126" target="xErckH01YXHk2ok-q27Q-147">
          <mxGeometry width="50" height="50" relative="1" as="geometry">
            <mxPoint x="743" y="840" as="sourcePoint" />
            <mxPoint x="793" y="790" as="targetPoint" />
          </mxGeometry>
        </mxCell>
        <mxCell id="xErckH01YXHk2ok-q27Q-153" value="&lt;span style=&quot;font-size: 16px; font-weight: 400;&quot;&gt;Dodanie przypadku w ID&lt;/span&gt;" style="swimlane;whiteSpace=wrap;html=1;fillColor=#dae8fc;strokeColor=#6c8ebf;fixDash=0;dropTarget=1;editable=1;movable=1;resizable=1;rotatable=1;deletable=1;locked=0;connectable=1;treeFolding=0;swimlaneLine=1;noLabel=0;perimeter=rectanglePerimeter;autosize=0;fixedWidth=0;startSize=30;" vertex="1" parent="1">
          <mxGeometry x="603" y="670" width="220" height="100" as="geometry">
            <mxRectangle x="430" y="-220" width="50" height="30" as="alternateBounds" />
          </mxGeometry>
        </mxCell>
        <mxCell id="xErckH01YXHk2ok-q27Q-154" value="Wymyślić na jakie wartości wysterować sygnały wychodzące z ID" style="rounded=0;whiteSpace=wrap;html=1;" vertex="1" parent="xErckH01YXHk2ok-q27Q-153">
          <mxGeometry y="30" width="220" height="70" as="geometry" />
        </mxCell>
        <mxCell id="xErckH01YXHk2ok-q27Q-156" value="" style="endArrow=classic;html=1;rounded=0;" edge="1" parent="1" source="xErckH01YXHk2ok-q27Q-126" target="xErckH01YXHk2ok-q27Q-153">
          <mxGeometry width="50" height="50" relative="1" as="geometry">
            <mxPoint x="823" y="620" as="sourcePoint" />
            <mxPoint x="873" y="570" as="targetPoint" />
          </mxGeometry>
        </mxCell>
        <mxCell id="xErckH01YXHk2ok-q27Q-160" value="&lt;span style=&quot;font-size: 16px; font-weight: 400;&quot;&gt;Konflikt&lt;/span&gt;" style="swimlane;whiteSpace=wrap;html=1;fillColor=#f5f5f5;strokeColor=#666666;fixDash=0;dropTarget=1;editable=1;movable=1;resizable=1;rotatable=1;deletable=1;locked=0;connectable=1;treeFolding=0;swimlaneLine=1;noLabel=0;perimeter=rectanglePerimeter;autosize=0;fixedWidth=0;fontColor=#333333;startSize=30;" vertex="1" parent="1">
          <mxGeometry x="1180" y="480" width="220" height="140" as="geometry">
            <mxRectangle x="1180" y="480" width="50" height="30" as="alternateBounds" />
          </mxGeometry>
        </mxCell>
        <mxCell id="xErckH01YXHk2ok-q27Q-161" value="&lt;font color=&quot;#333333&quot;&gt;Konieczność rozróżnienia instrukcji dla tych dwóch typów danych, ponieważ&lt;br&gt;&lt;/font&gt;IMD: ADD R0&lt;br&gt;DM: ADD 5&amp;nbsp;&amp;nbsp;&lt;br&gt;są sobie równe.&lt;div&gt;&lt;br&gt;&lt;/div&gt;" style="rounded=0;whiteSpace=wrap;html=1;" vertex="1" parent="xErckH01YXHk2ok-q27Q-160">
          <mxGeometry y="30" width="220" height="110" as="geometry" />
        </mxCell>
        <mxCell id="xErckH01YXHk2ok-q27Q-163" value="&lt;font style=&quot;font-size: 14px;&quot;&gt;&lt;strike&gt;Rozszerzenie PM_Ins do &lt;b&gt;12 &lt;/b&gt;bitów&lt;/strike&gt;&lt;/font&gt;" style="rounded=1;whiteSpace=wrap;html=1;fillColor=#f5f5f5;fontColor=#333333;strokeColor=#000000;" vertex="1" parent="1">
          <mxGeometry x="1480" y="390" width="130" height="50" as="geometry" />
        </mxCell>
        <mxCell id="xErckH01YXHk2ok-q27Q-164" style="edgeStyle=orthogonalEdgeStyle;rounded=0;orthogonalLoop=1;jettySize=auto;html=1;" edge="1" parent="1" source="xErckH01YXHk2ok-q27Q-145" target="xErckH01YXHk2ok-q27Q-163">
          <mxGeometry relative="1" as="geometry" />
        </mxCell>
        <mxCell id="xErckH01YXHk2ok-q27Q-183" value="" style="edgeStyle=orthogonalEdgeStyle;rounded=0;orthogonalLoop=1;jettySize=auto;html=1;" edge="1" parent="1" source="xErckH01YXHk2ok-q27Q-167" target="xErckH01YXHk2ok-q27Q-170">
          <mxGeometry relative="1" as="geometry" />
        </mxCell>
        <mxCell id="xErckH01YXHk2ok-q27Q-167" value="&lt;font style=&quot;font-size: 14px;&quot;&gt;Rozszerzenie PM_Ins do &lt;b&gt;13&lt;/b&gt; bitów&lt;/font&gt;" style="rounded=1;whiteSpace=wrap;html=1;fillColor=#d5e8d4;strokeColor=#82b366;" vertex="1" parent="1">
          <mxGeometry x="1480" y="660" width="130" height="50" as="geometry" />
        </mxCell>
        <mxCell id="xErckH01YXHk2ok-q27Q-171" style="edgeStyle=orthogonalEdgeStyle;rounded=0;orthogonalLoop=1;jettySize=auto;html=1;" edge="1" parent="1" source="xErckH01YXHk2ok-q27Q-168" target="xErckH01YXHk2ok-q27Q-167">
          <mxGeometry relative="1" as="geometry" />
        </mxCell>
        <mxCell id="xErckH01YXHk2ok-q27Q-174" value="" style="edgeStyle=orthogonalEdgeStyle;rounded=0;orthogonalLoop=1;jettySize=auto;html=1;" edge="1" parent="1" source="xErckH01YXHk2ok-q27Q-168" target="xErckH01YXHk2ok-q27Q-169">
          <mxGeometry relative="1" as="geometry" />
        </mxCell>
        <mxCell id="xErckH01YXHk2ok-q27Q-168" value="&lt;span style=&quot;font-size: 14px;&quot;&gt;Dodanie bitu do kodu operacji&lt;/span&gt;" style="rounded=1;whiteSpace=wrap;html=1;fillColor=#f5f5f5;fontColor=#333333;strokeColor=#666666;" vertex="1" parent="1">
          <mxGeometry x="1225" y="660" width="130" height="50" as="geometry" />
        </mxCell>
        <mxCell id="xErckH01YXHk2ok-q27Q-169" value="&lt;span style=&quot;font-size: 14px;&quot;&gt;Dodanie nowych mnemoniców&lt;/span&gt;" style="rounded=1;whiteSpace=wrap;html=1;fillColor=#f5f5f5;fontColor=#333333;strokeColor=#666666;" vertex="1" parent="1">
          <mxGeometry x="1225" y="740" width="130" height="50" as="geometry" />
        </mxCell>
        <mxCell id="xErckH01YXHk2ok-q27Q-170" value="&lt;span style=&quot;font-size: 14px;&quot;&gt;Rozszerzenie OpCode do &lt;b&gt;5&lt;/b&gt;&lt;/span&gt;&lt;span style=&quot;font-size: 14px;&quot;&gt;&amp;nbsp;bitów&lt;/span&gt;" style="rounded=1;whiteSpace=wrap;html=1;fillColor=#d5e8d4;strokeColor=#82b366;" vertex="1" parent="1">
          <mxGeometry x="1480" y="820" width="130" height="50" as="geometry" />
        </mxCell>
        <mxCell id="xErckH01YXHk2ok-q27Q-173" value="" style="edgeStyle=orthogonalEdgeStyle;rounded=0;orthogonalLoop=1;jettySize=auto;html=1;" edge="1" parent="1" source="xErckH01YXHk2ok-q27Q-161" target="xErckH01YXHk2ok-q27Q-168">
          <mxGeometry relative="1" as="geometry" />
        </mxCell>
        <mxCell id="xErckH01YXHk2ok-q27Q-182" value="" style="edgeStyle=orthogonalEdgeStyle;rounded=0;orthogonalLoop=1;jettySize=auto;html=1;" edge="1" parent="1" source="xErckH01YXHk2ok-q27Q-176" target="xErckH01YXHk2ok-q27Q-170">
          <mxGeometry relative="1" as="geometry" />
        </mxCell>
        <mxCell id="xErckH01YXHk2ok-q27Q-176" value="&lt;span style=&quot;font-size: 14px;&quot;&gt;Rozszerzenie ilości intruckji&lt;/span&gt;" style="rounded=1;whiteSpace=wrap;html=1;fillColor=#f5f5f5;fontColor=#333333;strokeColor=#666666;" vertex="1" parent="1">
          <mxGeometry x="1310" y="820" width="130" height="50" as="geometry" />
        </mxCell>
        <mxCell id="xErckH01YXHk2ok-q27Q-179" value="" style="endArrow=classic;html=1;rounded=0;" edge="1" parent="1" source="xErckH01YXHk2ok-q27Q-169" target="xErckH01YXHk2ok-q27Q-185">
          <mxGeometry width="50" height="50" relative="1" as="geometry">
            <mxPoint x="1280" y="630" as="sourcePoint" />
            <mxPoint x="1224.6875" y="820" as="targetPoint" />
          </mxGeometry>
        </mxCell>
        <mxCell id="xErckH01YXHk2ok-q27Q-180" value="" style="endArrow=classic;html=1;rounded=0;" edge="1" parent="1" source="xErckH01YXHk2ok-q27Q-169" target="xErckH01YXHk2ok-q27Q-176">
          <mxGeometry width="50" height="50" relative="1" as="geometry">
            <mxPoint x="1280" y="630" as="sourcePoint" />
            <mxPoint x="1330" y="580" as="targetPoint" />
          </mxGeometry>
        </mxCell>
        <mxCell id="xErckH01YXHk2ok-q27Q-185" value="&lt;span style=&quot;font-size: 14px; font-weight: 400;&quot;&gt;Zmiana rozkładu instrukcji&lt;/span&gt;" style="swimlane;whiteSpace=wrap;html=1;fillColor=#dedede;strokeColor=#666666;fixDash=0;dropTarget=1;editable=1;movable=1;resizable=1;rotatable=1;deletable=1;locked=0;connectable=1;treeFolding=0;swimlaneLine=1;noLabel=0;perimeter=rectanglePerimeter;autosize=0;fixedWidth=0;fontColor=#333333;startSize=30;" vertex="1" parent="1">
          <mxGeometry x="1020" y="900" width="220" height="80" as="geometry">
            <mxRectangle x="430" y="-220" width="50" height="30" as="alternateBounds" />
          </mxGeometry>
        </mxCell>
        <mxCell id="xErckH01YXHk2ok-q27Q-186" value="&lt;div&gt;&lt;font color=&quot;#333333&quot;&gt;Stworzenie nowej tabeli instrukcji&lt;br&gt;Aktualizacja Mnemoniców&lt;/font&gt;&lt;/div&gt;" style="rounded=0;whiteSpace=wrap;html=1;container=1;" vertex="1" parent="xErckH01YXHk2ok-q27Q-185">
          <mxGeometry y="30" width="220" height="50" as="geometry">
            <mxRectangle y="30" width="220" height="30" as="alternateBounds" />
          </mxGeometry>
        </mxCell>
        <mxCell id="xErckH01YXHk2ok-q27Q-197" value="" style="endArrow=classic;html=1;rounded=0;dashed=1;" edge="1" parent="1" source="xErckH01YXHk2ok-q27Q-149" target="xErckH01YXHk2ok-q27Q-185">
          <mxGeometry width="50" height="50" relative="1" as="geometry">
            <mxPoint x="920" y="880" as="sourcePoint" />
            <mxPoint x="970" y="830" as="targetPoint" />
          </mxGeometry>
        </mxCell>
        <mxCell id="xErckH01YXHk2ok-q27Q-200" value="&lt;span style=&quot;font-size: 14px; font-weight: 400;&quot;&gt;Refaktoryzacja ID&lt;/span&gt;" style="swimlane;whiteSpace=wrap;html=1;fillColor=#d5e8d4;strokeColor=#82b366;fixDash=0;dropTarget=1;editable=1;movable=1;resizable=1;rotatable=1;deletable=1;locked=0;connectable=1;treeFolding=0;swimlaneLine=1;noLabel=0;perimeter=rectanglePerimeter;autosize=0;fixedWidth=0;startSize=30;" vertex="1" parent="1">
          <mxGeometry x="900" y="1200" width="220" height="230" as="geometry">
            <mxRectangle x="430" y="-220" width="50" height="30" as="alternateBounds" />
          </mxGeometry>
        </mxCell>
        <mxCell id="xErckH01YXHk2ok-q27Q-201" value="&lt;font color=&quot;#333333&quot;&gt;Zachowanie kodu powtarzającego &lt;br&gt;się w nowej i starej strukturze&lt;br&gt;oraz &lt;br&gt;określenie zachowania nowych sygnałów wychodzących z ID:&lt;br&gt;&lt;ul&gt;&lt;li style=&quot;text-align: left;&quot;&gt;DM_CE&lt;/li&gt;&lt;li style=&quot;text-align: left;&quot;&gt;DM_Addr&lt;/li&gt;&lt;li style=&quot;text-align: left;&quot;&gt;ImdData&lt;/li&gt;&lt;li style=&quot;text-align: left;&quot;&gt;Sel&lt;/li&gt;&lt;li style=&quot;text-align: left;&quot;&gt;InsAddr&lt;/li&gt;&lt;li style=&quot;text-align: left;&quot;&gt;SetPC&lt;/li&gt;&lt;/ul&gt;&lt;/font&gt;" style="rounded=0;whiteSpace=wrap;html=1;container=1;" vertex="1" parent="xErckH01YXHk2ok-q27Q-200">
          <mxGeometry y="30" width="220" height="200" as="geometry">
            <mxRectangle y="30" width="220" height="30" as="alternateBounds" />
          </mxGeometry>
        </mxCell>
        <mxCell id="xErckH01YXHk2ok-q27Q-202" value="&lt;span style=&quot;font-size: 14px; font-weight: 400;&quot;&gt;Stworzenie nowej tabeli instrukcji&lt;/span&gt;" style="swimlane;whiteSpace=wrap;html=1;fillColor=#dedede;strokeColor=#666666;fixDash=0;dropTarget=1;editable=1;movable=1;resizable=1;rotatable=1;deletable=1;locked=0;connectable=1;treeFolding=0;swimlaneLine=1;noLabel=0;perimeter=rectanglePerimeter;autosize=0;fixedWidth=0;fontColor=#333333;startSize=30;" vertex="1" parent="1">
          <mxGeometry x="1020" y="1010" width="220" height="120" as="geometry">
            <mxRectangle x="430" y="-220" width="50" height="30" as="alternateBounds" />
          </mxGeometry>
        </mxCell>
        <mxCell id="xErckH01YXHk2ok-q27Q-203" value="&lt;font color=&quot;#333333&quot;&gt;Podział Instrukcji na 4 kategorie:&lt;/font&gt;&lt;font color=&quot;#333333&quot;&gt;&lt;br&gt;&lt;ul style=&quot;padding-left: 30px; margin-top: 0px; margin-bottom: 0px;&quot;&gt;&lt;li style=&quot;text-align: left;&quot;&gt;Register Input&lt;/li&gt;&lt;li style=&quot;text-align: left;&quot;&gt;Data Memory&lt;/li&gt;&lt;li style=&quot;text-align: left;&quot;&gt;Imediate Data&lt;/li&gt;&lt;li style=&quot;text-align: left;&quot;&gt;Reszta&lt;/li&gt;&lt;/ul&gt;&lt;/font&gt;" style="rounded=0;whiteSpace=wrap;html=1;container=1;" vertex="1" parent="xErckH01YXHk2ok-q27Q-202">
          <mxGeometry y="30" width="220" height="90" as="geometry">
            <mxRectangle y="30" width="220" height="30" as="alternateBounds" />
          </mxGeometry>
        </mxCell>
        <mxCell id="xErckH01YXHk2ok-q27Q-207" style="edgeStyle=orthogonalEdgeStyle;rounded=0;orthogonalLoop=1;jettySize=auto;html=1;" edge="1" parent="1" source="xErckH01YXHk2ok-q27Q-186" target="xErckH01YXHk2ok-q27Q-202">
          <mxGeometry relative="1" as="geometry" />
        </mxCell>
        <mxCell id="xErckH01YXHk2ok-q27Q-208" value="&lt;font style=&quot;font-size: 27px;&quot; color=&quot;#f5f5f5&quot;&gt;&lt;span style=&quot;font-weight: 400;&quot;&gt;Upgrade uP&lt;/span&gt;&lt;br style=&quot;font-weight: 400;&quot;&gt;&lt;span style=&quot;font-weight: 400;&quot;&gt;10.12.24&lt;/span&gt;&lt;/font&gt;" style="swimlane;whiteSpace=wrap;html=1;fillColor=#000000;strokeColor=#666666;fixDash=0;dropTarget=1;editable=1;movable=1;resizable=1;rotatable=1;deletable=1;locked=0;connectable=1;treeFolding=0;swimlaneLine=1;noLabel=0;perimeter=rectanglePerimeter;autosize=0;fixedWidth=0;fontColor=#333333;startSize=70;" vertex="1" parent="1">
          <mxGeometry x="905" y="-30" width="270" height="210" as="geometry">
            <mxRectangle x="430" y="-220" width="50" height="30" as="alternateBounds" />
          </mxGeometry>
        </mxCell>
        <mxCell id="xErckH01YXHk2ok-q27Q-209" value="&lt;font style=&quot;font-size: 14px;&quot; color=&quot;#333333&quot;&gt;Zakłada dodanie:&lt;/font&gt;&lt;div&gt;&lt;ul&gt;&lt;li style=&quot;text-align: left;&quot;&gt;&lt;font color=&quot;#333333&quot;&gt;Instrukcji Skoku&lt;/font&gt;&lt;/li&gt;&lt;li style=&quot;text-align: left;&quot;&gt;&lt;font color=&quot;#333333&quot;&gt;Dodanie Danych natychmiastowych co zezwoli na używanie: ADD 5&lt;/font&gt;&lt;/li&gt;&lt;li style=&quot;text-align: left;&quot;&gt;&lt;font color=&quot;#333333&quot;&gt;Dodanie Pamięci danych co zezwoli na zapis danych poza Akumulatorem i rejestrami&lt;/font&gt;&lt;/li&gt;&lt;/ul&gt;&lt;/div&gt;" style="rounded=0;whiteSpace=wrap;html=1;" vertex="1" parent="xErckH01YXHk2ok-q27Q-208">
          <mxGeometry y="70" width="270" height="140" as="geometry" />
        </mxCell>
        <mxCell id="xErckH01YXHk2ok-q27Q-211" value="" style="endArrow=classic;html=1;rounded=0;" edge="1" parent="1" source="xErckH01YXHk2ok-q27Q-126" target="xErckH01YXHk2ok-q27Q-149">
          <mxGeometry width="50" height="50" relative="1" as="geometry">
            <mxPoint x="920" y="370" as="sourcePoint" />
            <mxPoint x="970" y="320" as="targetPoint" />
          </mxGeometry>
        </mxCell>
        <mxCell id="xErckH01YXHk2ok-q27Q-212" value="" style="endArrow=classic;html=1;rounded=0;" edge="1" parent="1" source="xErckH01YXHk2ok-q27Q-208" target="xErckH01YXHk2ok-q27Q-126">
          <mxGeometry width="50" height="50" relative="1" as="geometry">
            <mxPoint x="920" y="220" as="sourcePoint" />
            <mxPoint x="970" y="170" as="targetPoint" />
          </mxGeometry>
        </mxCell>
        <mxCell id="xErckH01YXHk2ok-q27Q-213" value="&lt;span style=&quot;font-size: 16px;&quot;&gt;&lt;b&gt;Multiplekser &lt;br&gt;nad ALU&lt;/b&gt;&lt;/span&gt;" style="rounded=1;whiteSpace=wrap;html=1;fillColor=#d5e8d4;strokeColor=#82b366;" vertex="1" parent="1">
          <mxGeometry x="320" y="240" width="140" height="80" as="geometry" />
        </mxCell>
        <mxCell id="xErckH01YXHk2ok-q27Q-214" value="" style="endArrow=classic;html=1;rounded=0;" edge="1" parent="1" source="xErckH01YXHk2ok-q27Q-208" target="xErckH01YXHk2ok-q27Q-213">
          <mxGeometry width="50" height="50" relative="1" as="geometry">
            <mxPoint x="870" y="590" as="sourcePoint" />
            <mxPoint x="920" y="540" as="targetPoint" />
          </mxGeometry>
        </mxCell>
        <mxCell id="xErckH01YXHk2ok-q27Q-216" style="edgeStyle=orthogonalEdgeStyle;rounded=0;orthogonalLoop=1;jettySize=auto;html=1;" edge="1" parent="1" source="xErckH01YXHk2ok-q27Q-145" target="xErckH01YXHk2ok-q27Q-160">
          <mxGeometry relative="1" as="geometry" />
        </mxCell>
        <mxCell id="xErckH01YXHk2ok-q27Q-218" value="" style="endArrow=classic;html=1;rounded=0;" edge="1" parent="1" source="xErckH01YXHk2ok-q27Q-202" target="xErckH01YXHk2ok-q27Q-200">
          <mxGeometry width="50" height="50" relative="1" as="geometry">
            <mxPoint x="1020" y="1050" as="sourcePoint" />
            <mxPoint x="1070" y="1000" as="targetPoint" />
          </mxGeometry>
        </mxCell>
        <mxCell id="xErckH01YXHk2ok-q27Q-219" value="" style="endArrow=classic;html=1;rounded=0;dashed=1;" edge="1" parent="1" source="xErckH01YXHk2ok-q27Q-153" target="xErckH01YXHk2ok-q27Q-200">
          <mxGeometry width="50" height="50" relative="1" as="geometry">
            <mxPoint x="1111" y="1140" as="sourcePoint" />
            <mxPoint x="1076" y="1210" as="targetPoint" />
          </mxGeometry>
        </mxCell>
        <mxCell id="xErckH01YXHk2ok-q27Q-221" value="&lt;span style=&quot;font-size: 16px; font-weight: 400;&quot;&gt;Cechy Data Memory&lt;/span&gt;" style="swimlane;whiteSpace=wrap;html=1;fillColor=#d5e8d4;strokeColor=#82b366;fixDash=0;dropTarget=1;editable=1;movable=1;resizable=1;rotatable=1;deletable=1;locked=0;connectable=1;treeFolding=0;swimlaneLine=1;noLabel=0;perimeter=rectanglePerimeter;autosize=0;fixedWidth=0;startSize=30;" vertex="1" parent="1">
          <mxGeometry x="1650" y="360" width="260" height="190" as="geometry">
            <mxRectangle x="1180" y="480" width="50" height="30" as="alternateBounds" />
          </mxGeometry>
        </mxCell>
        <mxCell id="xErckH01YXHk2ok-q27Q-222" value="&lt;ul style=&quot;padding-left: 20px;&quot;&gt;&lt;li&gt;&lt;font color=&quot;#333333&quot;&gt;Adres demultipleksowany do wejścia wpisu danych odpowiedniej komórki&lt;/font&gt;&lt;/li&gt;&lt;li&gt;&lt;font color=&quot;#333333&quot;&gt;Rozszerzenie PM_Ins do 13 bitów&lt;/font&gt;&lt;/li&gt;&lt;li&gt;&lt;font color=&quot;#333333&quot;&gt;wyjście komórki&amp;nbsp; multipleksowane do wyjścia modułu&lt;/font&gt;&lt;/li&gt;&lt;li&gt;&lt;font color=&quot;#333333&quot;&gt;Write Enable&lt;br&gt;&lt;/font&gt;&lt;/li&gt;&lt;li&gt;&lt;font color=&quot;#333333&quot;&gt;W praktyce asynchroniczny odczyt synchroniczny zapis - sprawdzić synteze&lt;/font&gt;&lt;/li&gt;&lt;/ul&gt;" style="rounded=0;whiteSpace=wrap;html=1;align=left;" vertex="1" parent="xErckH01YXHk2ok-q27Q-221">
          <mxGeometry y="30" width="260" height="160" as="geometry" />
        </mxCell>
        <mxCell id="xErckH01YXHk2ok-q27Q-223" value="" style="endArrow=classic;html=1;rounded=0;" edge="1" parent="1" source="xErckH01YXHk2ok-q27Q-127" target="xErckH01YXHk2ok-q27Q-221">
          <mxGeometry width="50" height="50" relative="1" as="geometry">
            <mxPoint x="1440" y="440" as="sourcePoint" />
            <mxPoint x="1490" y="390" as="targetPoint" />
          </mxGeometry>
        </mxCell>
        <mxCell id="xErckH01YXHk2ok-q27Q-226" value="&lt;font color=&quot;#f5f5f5&quot;&gt;&lt;span style=&quot;font-size: 27px; font-weight: 400;&quot;&gt;kroki postępowania&lt;/span&gt;&lt;/font&gt;" style="swimlane;whiteSpace=wrap;html=1;fillColor=#000000;strokeColor=#666666;fixDash=0;dropTarget=1;editable=1;movable=1;resizable=1;rotatable=1;deletable=1;locked=0;connectable=1;treeFolding=0;swimlaneLine=1;noLabel=0;perimeter=rectanglePerimeter;autosize=0;fixedWidth=0;fontColor=#333333;startSize=40;" vertex="1" parent="1">
          <mxGeometry x="1280" y="1195" width="270" height="240" as="geometry">
            <mxRectangle x="430" y="-220" width="50" height="30" as="alternateBounds" />
          </mxGeometry>
        </mxCell>
        <mxCell id="xErckH01YXHk2ok-q27Q-227" value="&lt;ul style=&quot;padding-left: 20px;&quot;&gt;&lt;li style=&quot;text-align: left;&quot;&gt;&lt;font color=&quot;#333333&quot;&gt;1. Rozszerzenie PM_Ins do 13 bitów: &lt;br&gt;5b OpCode oraz 8 bit Data&lt;br&gt;&lt;br&gt;&lt;/font&gt;&lt;/li&gt;&lt;li style=&quot;text-align: left;&quot;&gt;&lt;font color=&quot;#333333&quot;&gt;2. Stworzenie nowego ID dla istrukcji typu R oraz NOP&lt;br&gt;&lt;br&gt;&lt;/font&gt;&lt;/li&gt;&lt;li style=&quot;text-align: left;&quot;&gt;&lt;font color=&quot;#333333&quot;&gt;3. Dodanie Istrukcji IMD oraz multipleksera&lt;br&gt;&lt;br&gt;&lt;/font&gt;&lt;/li&gt;&lt;li style=&quot;text-align: left;&quot;&gt;&lt;font color=&quot;#333333&quot;&gt;4. Dodanie Data Memory oraz instrukcji DM&lt;br&gt;&lt;br&gt;&lt;/font&gt;&lt;/li&gt;&lt;li style=&quot;text-align: left;&quot;&gt;&lt;font color=&quot;#333333&quot;&gt;5. Dodanie instrukcji skoku, wartości sterujących ID, wejść PC&lt;/font&gt;&lt;/li&gt;&lt;/ul&gt;" style="rounded=0;whiteSpace=wrap;html=1;" vertex="1" parent="xErckH01YXHk2ok-q27Q-226">
          <mxGeometry y="40" width="270" height="200" as="geometry" />
        </mxCell>
      </root>
    </mxGraphModel>
  </diagram>
</mxfile>
